<mxfile host="app.diagrams.net" modified="2023-06-23T23:33:07.032Z" agent="Mozilla/5.0 (Windows NT 10.0; Win64; x64) AppleWebKit/537.36 (KHTML, like Gecko) Chrome/114.0.0.0 Safari/537.36" etag="DGgQ1eNIvFKz9TVy_oHl" version="21.5.0" type="device">
  <diagram name="PÃ¡gina-1" id="WrPxRDc-FlkA26pwA6Gm">
    <mxGraphModel dx="1687" dy="899" grid="1" gridSize="10" guides="1" tooltips="1" connect="1" arrows="1" fold="1" page="1" pageScale="1" pageWidth="1600" pageHeight="900" math="0" shadow="0">
      <root>
        <mxCell id="0" />
        <mxCell id="1" parent="0" />
        <mxCell id="NCG2S4DG2DZjMfyoJW7h-22" value="" style="rounded=0;whiteSpace=wrap;html=1;fillColor=none;dashed=1;strokeColor=#007FFF;" vertex="1" parent="1">
          <mxGeometry x="482" y="740" width="640" height="80" as="geometry" />
        </mxCell>
        <mxCell id="NCG2S4DG2DZjMfyoJW7h-37" value="" style="rounded=0;whiteSpace=wrap;html=1;fillColor=none;dashed=1;" vertex="1" parent="1">
          <mxGeometry x="477" y="350" width="640" height="80" as="geometry" />
        </mxCell>
        <mxCell id="NCG2S4DG2DZjMfyoJW7h-32" style="edgeStyle=orthogonalEdgeStyle;rounded=0;orthogonalLoop=1;jettySize=auto;html=1;exitX=0.5;exitY=0;exitDx=0;exitDy=0;entryX=0.5;entryY=1;entryDx=0;entryDy=0;" edge="1" parent="1" source="NCG2S4DG2DZjMfyoJW7h-7" target="NCG2S4DG2DZjMfyoJW7h-14">
          <mxGeometry relative="1" as="geometry" />
        </mxCell>
        <mxCell id="NCG2S4DG2DZjMfyoJW7h-7" value="UserModule" style="rounded=1;whiteSpace=wrap;html=1;" vertex="1" parent="1">
          <mxGeometry x="737" y="450" width="120" height="60" as="geometry" />
        </mxCell>
        <mxCell id="NCG2S4DG2DZjMfyoJW7h-31" style="edgeStyle=orthogonalEdgeStyle;rounded=0;orthogonalLoop=1;jettySize=auto;html=1;exitX=0.5;exitY=0;exitDx=0;exitDy=0;" edge="1" parent="1" source="NCG2S4DG2DZjMfyoJW7h-8" target="NCG2S4DG2DZjMfyoJW7h-15">
          <mxGeometry relative="1" as="geometry" />
        </mxCell>
        <mxCell id="NCG2S4DG2DZjMfyoJW7h-8" value="ProductModule" style="rounded=1;whiteSpace=wrap;html=1;" vertex="1" parent="1">
          <mxGeometry x="567" y="450" width="120" height="60" as="geometry" />
        </mxCell>
        <mxCell id="NCG2S4DG2DZjMfyoJW7h-33" style="edgeStyle=orthogonalEdgeStyle;rounded=0;orthogonalLoop=1;jettySize=auto;html=1;exitX=0.5;exitY=0;exitDx=0;exitDy=0;entryX=0.5;entryY=1;entryDx=0;entryDy=0;" edge="1" parent="1" source="NCG2S4DG2DZjMfyoJW7h-9" target="NCG2S4DG2DZjMfyoJW7h-16">
          <mxGeometry relative="1" as="geometry" />
        </mxCell>
        <mxCell id="NCG2S4DG2DZjMfyoJW7h-9" value="OrderModule" style="rounded=1;whiteSpace=wrap;html=1;" vertex="1" parent="1">
          <mxGeometry x="907" y="450" width="120" height="60" as="geometry" />
        </mxCell>
        <mxCell id="NCG2S4DG2DZjMfyoJW7h-28" style="edgeStyle=orthogonalEdgeStyle;rounded=0;orthogonalLoop=1;jettySize=auto;html=1;exitX=0.5;exitY=0;exitDx=0;exitDy=0;entryX=0.5;entryY=1;entryDx=0;entryDy=0;" edge="1" parent="1" source="NCG2S4DG2DZjMfyoJW7h-10" target="NCG2S4DG2DZjMfyoJW7h-8">
          <mxGeometry relative="1" as="geometry" />
        </mxCell>
        <mxCell id="NCG2S4DG2DZjMfyoJW7h-10" value="ProductRepository" style="rounded=1;whiteSpace=wrap;html=1;" vertex="1" parent="1">
          <mxGeometry x="567" y="540" width="120" height="60" as="geometry" />
        </mxCell>
        <mxCell id="NCG2S4DG2DZjMfyoJW7h-29" style="edgeStyle=orthogonalEdgeStyle;rounded=0;orthogonalLoop=1;jettySize=auto;html=1;exitX=0.5;exitY=0;exitDx=0;exitDy=0;entryX=0.5;entryY=1;entryDx=0;entryDy=0;" edge="1" parent="1" source="NCG2S4DG2DZjMfyoJW7h-11" target="NCG2S4DG2DZjMfyoJW7h-7">
          <mxGeometry relative="1" as="geometry" />
        </mxCell>
        <mxCell id="NCG2S4DG2DZjMfyoJW7h-11" value="UserRepository" style="rounded=1;whiteSpace=wrap;html=1;" vertex="1" parent="1">
          <mxGeometry x="737" y="540" width="120" height="60" as="geometry" />
        </mxCell>
        <mxCell id="NCG2S4DG2DZjMfyoJW7h-30" style="edgeStyle=orthogonalEdgeStyle;rounded=0;orthogonalLoop=1;jettySize=auto;html=1;exitX=0.5;exitY=0;exitDx=0;exitDy=0;entryX=0.5;entryY=1;entryDx=0;entryDy=0;" edge="1" parent="1" source="NCG2S4DG2DZjMfyoJW7h-12" target="NCG2S4DG2DZjMfyoJW7h-9">
          <mxGeometry relative="1" as="geometry" />
        </mxCell>
        <mxCell id="NCG2S4DG2DZjMfyoJW7h-12" value="OrderRepository" style="rounded=1;whiteSpace=wrap;html=1;" vertex="1" parent="1">
          <mxGeometry x="907" y="540" width="120" height="60" as="geometry" />
        </mxCell>
        <mxCell id="NCG2S4DG2DZjMfyoJW7h-13" value="NotificationsServices" style="rounded=1;whiteSpace=wrap;html=1;" vertex="1" parent="1">
          <mxGeometry x="652" y="750" width="120" height="60" as="geometry" />
        </mxCell>
        <mxCell id="NCG2S4DG2DZjMfyoJW7h-14" value="UserController" style="rounded=1;whiteSpace=wrap;html=1;" vertex="1" parent="1">
          <mxGeometry x="737" y="360" width="120" height="60" as="geometry" />
        </mxCell>
        <mxCell id="NCG2S4DG2DZjMfyoJW7h-15" value="ProductController" style="rounded=1;whiteSpace=wrap;html=1;" vertex="1" parent="1">
          <mxGeometry x="567" y="360" width="120" height="60" as="geometry" />
        </mxCell>
        <mxCell id="NCG2S4DG2DZjMfyoJW7h-16" value="OrderController" style="rounded=1;whiteSpace=wrap;html=1;" vertex="1" parent="1">
          <mxGeometry x="907" y="360" width="120" height="60" as="geometry" />
        </mxCell>
        <mxCell id="NCG2S4DG2DZjMfyoJW7h-24" value="Driven Side&lt;br&gt;Secondary Users" style="rounded=0;whiteSpace=wrap;html=1;" vertex="1" parent="1">
          <mxGeometry x="240" y="750" width="120" height="60" as="geometry" />
        </mxCell>
        <mxCell id="NCG2S4DG2DZjMfyoJW7h-35" value="" style="rounded=0;whiteSpace=wrap;html=1;fillColor=none;dashed=1;" vertex="1" parent="1">
          <mxGeometry x="477" y="530" width="640" height="80" as="geometry" />
        </mxCell>
        <mxCell id="NCG2S4DG2DZjMfyoJW7h-36" value="" style="rounded=0;whiteSpace=wrap;html=1;fillColor=none;dashed=1;" vertex="1" parent="1">
          <mxGeometry x="477" y="440" width="640" height="80" as="geometry" />
        </mxCell>
        <mxCell id="NCG2S4DG2DZjMfyoJW7h-39" value="" style="rounded=0;whiteSpace=wrap;html=1;fillColor=none;dashed=1;fontColor=#ffffff;strokeColor=#A50040;" vertex="1" parent="1">
          <mxGeometry x="477" y="60" width="640" height="80" as="geometry" />
        </mxCell>
        <mxCell id="NCG2S4DG2DZjMfyoJW7h-40" value="Driver Side&lt;br&gt;Primary Users" style="rounded=0;whiteSpace=wrap;html=1;" vertex="1" parent="1">
          <mxGeometry x="240" y="70" width="120" height="60" as="geometry" />
        </mxCell>
        <mxCell id="NCG2S4DG2DZjMfyoJW7h-41" value="Web Interface" style="rounded=1;whiteSpace=wrap;html=1;" vertex="1" parent="1">
          <mxGeometry x="497" y="70" width="120" height="60" as="geometry" />
        </mxCell>
        <mxCell id="NCG2S4DG2DZjMfyoJW7h-42" value="Mobile App" style="rounded=1;whiteSpace=wrap;html=1;" vertex="1" parent="1">
          <mxGeometry x="647" y="70" width="120" height="60" as="geometry" />
        </mxCell>
        <mxCell id="NCG2S4DG2DZjMfyoJW7h-43" value="TestCases" style="rounded=1;whiteSpace=wrap;html=1;" vertex="1" parent="1">
          <mxGeometry x="797" y="70" width="120" height="60" as="geometry" />
        </mxCell>
        <mxCell id="NCG2S4DG2DZjMfyoJW7h-44" value="SelfService Toten" style="rounded=1;whiteSpace=wrap;html=1;" vertex="1" parent="1">
          <mxGeometry x="947" y="70" width="120" height="60" as="geometry" />
        </mxCell>
        <mxCell id="NCG2S4DG2DZjMfyoJW7h-45" value="ExternalAPIs" style="rounded=1;whiteSpace=wrap;html=1;" vertex="1" parent="1">
          <mxGeometry x="802" y="750" width="120" height="60" as="geometry" />
        </mxCell>
        <mxCell id="NCG2S4DG2DZjMfyoJW7h-46" value="Printter" style="rounded=1;whiteSpace=wrap;html=1;" vertex="1" parent="1">
          <mxGeometry x="952" y="750" width="120" height="60" as="geometry" />
        </mxCell>
        <mxCell id="NCG2S4DG2DZjMfyoJW7h-47" value="MySQL DB&lt;br&gt;InMemoryDB" style="rounded=1;whiteSpace=wrap;html=1;" vertex="1" parent="1">
          <mxGeometry x="502" y="750" width="120" height="60" as="geometry" />
        </mxCell>
        <mxCell id="NCG2S4DG2DZjMfyoJW7h-49" value="" style="rounded=0;whiteSpace=wrap;html=1;fillColor=none;dashed=1;" vertex="1" parent="1">
          <mxGeometry x="477" y="160" width="640" height="80" as="geometry" />
        </mxCell>
        <mxCell id="NCG2S4DG2DZjMfyoJW7h-50" value="Ports" style="rounded=0;whiteSpace=wrap;html=1;" vertex="1" parent="1">
          <mxGeometry x="240" y="260" width="120" height="60" as="geometry" />
        </mxCell>
        <mxCell id="NCG2S4DG2DZjMfyoJW7h-51" value="Adapters" style="rounded=0;whiteSpace=wrap;html=1;" vertex="1" parent="1">
          <mxGeometry x="240" y="170" width="120" height="60" as="geometry" />
        </mxCell>
        <mxCell id="NCG2S4DG2DZjMfyoJW7h-52" value="" style="rounded=0;whiteSpace=wrap;html=1;fillColor=none;dashed=1;" vertex="1" parent="1">
          <mxGeometry x="477" y="250" width="640" height="80" as="geometry" />
        </mxCell>
        <mxCell id="NCG2S4DG2DZjMfyoJW7h-53" value="Ports" style="rounded=0;whiteSpace=wrap;html=1;" vertex="1" parent="1">
          <mxGeometry x="240" y="540" width="120" height="60" as="geometry" />
        </mxCell>
        <mxCell id="NCG2S4DG2DZjMfyoJW7h-54" value="Adapters" style="rounded=0;whiteSpace=wrap;html=1;" vertex="1" parent="1">
          <mxGeometry x="240" y="630" width="120" height="55" as="geometry" />
        </mxCell>
      </root>
    </mxGraphModel>
  </diagram>
</mxfile>
